<svg xmlns="http://www.w3.org/2000/svg" xmlns:xlink="http://www.w3.org/1999/xlink" xmlns:lucid="lucid" width="1252.33" height="810.33"><g transform="translate(460.50000002678905 11.166666676723773)" lucid:page-tab-id="0_0"><path d="M-460 268a8 8 0 0 1 8-8h195.33a8 8 0 0 1 8 8v73.33a8 8 0 0 1-8 8H-452a8 8 0 0 1-8-8z" stroke="#3a414a" fill="#fff"/><use xlink:href="#a" transform="matrix(1,0,0,1,-448,272) translate(56.154296875 27.75)"/><use xlink:href="#b" transform="matrix(1,0,0,1,-448,272) translate(49.17138671875 49.529296875)"/><use xlink:href="#c" transform="matrix(1,0,0,1,-448,272) translate(77.82373046875 49.529296875)"/><path d="M80 488a8 8 0 0 1 8-8h195.33a8 8 0 0 1 8 8v73.33a8 8 0 0 1-8 8H88a8 8 0 0 1-8-8z" stroke="#3a414a" fill="#fff"/><use xlink:href="#d" transform="matrix(1,0,0,1,92,492) translate(60.109375 27.75)"/><use xlink:href="#b" transform="matrix(1,0,0,1,92,492) translate(33.93115234375 49.529296875)"/><use xlink:href="#e" transform="matrix(1,0,0,1,92,492) translate(62.58349609375 49.529296875)"/><path d="M440 717.33a8 8 0 0 1 8-8h195.33a8 8 0 0 1 8 8v73.34a8 8 0 0 1-8 8H448a8 8 0 0 1-8-8z" stroke="#3a414a" fill="#fff"/><use xlink:href="#f" transform="matrix(1,0,0,1,452,721.3333333333335) translate(66.89453125 27.75)"/><use xlink:href="#b" transform="matrix(1,0,0,1,452,721.3333333333335) translate(41.92919921875 49.529296875)"/><use xlink:href="#g" transform="matrix(1,0,0,1,452,721.3333333333335) translate(70.58154296875 49.529296875)"/><path d="M-460 628a8 8 0 0 1 8-8h195.33a8 8 0 0 1 8 8v73.33a8 8 0 0 1-8 8H-452a8 8 0 0 1-8-8z" stroke="#3a414a" fill="#fff"/><use xlink:href="#h" transform="matrix(1,0,0,1,-448,632) translate(63.994140625 27.75)"/><use xlink:href="#b" transform="matrix(1,0,0,1,-448,632) translate(37.80712890625 49.529296875)"/><use xlink:href="#i" transform="matrix(1,0,0,1,-448,632) translate(66.45947265625 49.529296875)"/><path d="M-180 717.33a8 8 0 0 1 8-8H23.33a8 8 0 0 1 8 8v73.34a8 8 0 0 1-8 8H-172a8 8 0 0 1-8-8z" stroke="#3a414a" fill="#fff"/><use xlink:href="#j" transform="matrix(1,0,0,1,-168,721.3333333333335) translate(76.720703125 27.75)"/><use xlink:href="#b" transform="matrix(1,0,0,1,-168,721.3333333333335) translate(51.794921875 49.529296875)"/><use xlink:href="#k" transform="matrix(1,0,0,1,-168,721.3333333333335) translate(80.447265625 49.529296875)"/><path d="M140 168a8 8 0 0 1 8-8h195.33a8 8 0 0 1 8 8v73.33a8 8 0 0 1-8 8H148a8 8 0 0 1-8-8z" stroke="#3a414a" fill="#fff"/><use xlink:href="#l" transform="matrix(1,0,0,1,152,172) translate(63.3525390625 27.75)"/><use xlink:href="#b" transform="matrix(1,0,0,1,152,172) translate(39.12109375 49.529296875)"/><use xlink:href="#m" transform="matrix(1,0,0,1,152,172) translate(67.7734375 49.529296875)"/><path d="M580 488a8 8 0 0 1 8-8h195.33a8 8 0 0 1 8 8v73.33a8 8 0 0 1-8 8H588a8 8 0 0 1-8-8z" stroke="#3a414a" fill="#fff"/><use xlink:href="#n" transform="matrix(1,0,0,1,592,492) translate(71.44287109375 27.75)"/><use xlink:href="#b" transform="matrix(1,0,0,1,592,492) translate(46.4775390625 49.529296875)"/><use xlink:href="#o" transform="matrix(1,0,0,1,592,492) translate(75.1298828125 49.529296875)"/><path d="M-353.86 619h-.95v-17.44h.94zm0-39.22h-.95v-84.22h.94zm0-106h-.95v-80.22h.94zm0-102h-.95v-21.45h.94z" stroke="#3a414a" stroke-width=".05" fill="#3a414a"/><path d="M-353.86 350.35h-.95v-.52h.94z" fill="#3a414a"/><path stroke="#3a414a" stroke-width=".05" fill="#3a414a"/><path d="M-353.86 619.5h-.95v-.5h.94z" fill="#3a414a"/><path stroke="#3a414a" stroke-width=".05" fill="#3a414a"/><use xlink:href="#p" transform="matrix(1,0,0,1,-381.7639973958333,473.7770180624999) translate(0.004999999999999005 17.4375)"/><use xlink:href="#q" transform="matrix(1,0,0,1,-374.7063802083333,579.7770182291666) translate(0.004999999999999005 17.4375)"/><use xlink:href="#r" transform="matrix(1,0,0,1,-372.6892903645833,371.7770182291667) translate(0.004999999999999005 17.4375)"/><path d="M546.14 708.33h-.95v-24.9h.94zm-12.46-69.47l1.94.15 1.9.47 1.8.75 1.68 1.02 1.5 1.27 1.26 1.5 1.02 1.67.75 1.8.46 1.9.14 1.95v10.33h-.95v-10.3l-.15-1.82-.42-1.76-.7-1.67-.94-1.54-1.18-1.38-1.38-1.17-1.54-.93-1.67-.7-1.76-.42-1.82-.14h-96.07v-.94zm-275.73-9.72l.42 1.75.7 1.67.94 1.54 1.2 1.38 1.36 1.18 1.54.94 1.67.7 1.76.42 1.82.14h96.07v.95h-96.1l-1.94-.14-1.9-.46-1.8-.75-1.68-1.02-1.5-1.27-1.26-1.5-1.02-1.66-.75-1.8-.46-1.92-.14-1.93v-15.8h.95v15.77zm-.14-39.36h-.94v-19.45h.95z" stroke="#3a414a" stroke-width=".05" fill="#3a414a"/><path d="M257.8 570.35h-.94v-.52h.95z" fill="#3a414a"/><path stroke="#3a414a" stroke-width=".05" fill="#3a414a"/><path d="M546.14 708.83h-.95v-.5h.94z" fill="#3a414a"/><path stroke="#3a414a" stroke-width=".05" fill="#3a414a"/><use xlink:href="#s" transform="matrix(1,0,0,1,365.42089754157337,628.4436663844572) translate(0.005000000000002558 17.4375)"/><use xlink:href="#r" transform="matrix(1,0,0,1,238.97737451022988,589.7839311660053) translate(0.004999999999999005 17.4375)"/><use xlink:href="#t" transform="matrix(1,0,0,1,529.7628580729167,661.6510205657698) translate(0.005000000000000782 17.4375)"/><path d="M55.8 754.48H32.33v-.96H55.8zm165.17 0H92.5v-.96h128.47zm171.36 0H250.36v-.96h141.97zm46.67 0h-5.92v-.96H439z" stroke="#3a414a" stroke-width=".05" fill="#3a414a"/><path d="M32.35 754.48h-.52v-.96h.52z" fill="#3a414a"/><path stroke="#3a414a" stroke-width=".05" fill="#3a414a"/><path d="M439.5 754.48h-.5v-.96h.5z" fill="#3a414a"/><path stroke="#3a414a" stroke-width=".05" fill="#3a414a"/><use xlink:href="#u" transform="matrix(1,0,0,1,220.97135400000022,743.1103515625002) translate(0.005000000000000782 17.4375)"/><use xlink:href="#q" transform="matrix(1,0,0,1,392.33108825681245,743.1103515625002) translate(0.004999999999999005 17.4375)"/><use xlink:href="#r" transform="matrix(1,0,0,1,55.79635881869265,743.1103515625002) translate(0.004999999999999005 17.4375)"/><path d="M303.6 525.14h-11.27v-.95h11.27zm117.37 0h-76.62v-.95h76.62zm106.87 0h-77.48v-.95h77.48zm51.16 0h-14.45v-.95H579z" stroke="#3a414a" stroke-width=".05" fill="#3a414a"/><path d="M579.5 525.14h-.5v-.95h.5z" fill="#3a414a"/><path stroke="#3a414a" stroke-width=".05" fill="#3a414a"/><path d="M292.35 525.14h-.52v-.95h.52z" fill="#3a414a"/><path stroke="#3a414a" stroke-width=".05" fill="#3a414a"/><use xlink:href="#u" transform="matrix(1,0,0,1,420.97135400000025,513.7770182291667) translate(0.005000000000000782 17.4375)"/><use xlink:href="#r" transform="matrix(1,0,0,1,527.8398682623695,513.7770182291667) translate(0.004999999999999005 17.4375)"/><use xlink:href="#q" transform="matrix(1,0,0,1,303.6009957095773,513.7770182291667) translate(0.004999999999999005 17.4375)"/><path d="M186.14 479h-.95v-13.95h.94zm14.83-113.86h-3.28l-1.84.15-1.75.4-1.66.7-1.55.94-1.38 1.18-1.18 1.37-.94 1.54-.7 1.67-.4 1.76-.16 1.82v66.6h-.95v-66.63l.14-1.94.46-1.9.75-1.8 1.02-1.67 1.27-1.5 1.5-1.26 1.66-1.02 1.8-.75 1.9-.46 1.95-.15h3.32zm45.17-12.45l-.15 1.92-.47 1.9-.75 1.8-1.02 1.68-1.27 1.5-1.5 1.26-1.67 1.02-1.8.75-1.9.46-1.94.14h-3.34v-.95h3.3l1.8-.15 1.77-.42 1.67-.7 1.54-.94 1.38-1.2 1.17-1.36.93-1.54.7-1.67.42-1.76.14-1.82v-58.7h.94zm0-80.53h-.95v-21.84h.94z" stroke="#3a414a" stroke-width=".05" fill="#3a414a"/><path d="M246.14 250.35h-.95v-.52h.94z" fill="#3a414a"/><path stroke="#3a414a" stroke-width=".05" fill="#3a414a"/><path d="M186.14 479.5h-.95v-.5h.94z" fill="#3a414a"/><path stroke="#3a414a" stroke-width=".05" fill="#3a414a"/><use xlink:href="#u" transform="matrix(1,0,0,1,200.97135416666666,353.7770180624999) translate(0.005000000000000782 17.4375)"/><use xlink:href="#q" transform="matrix(1,0,0,1,165.29361979166669,443.26780942554524) translate(0.004999999999999005 17.4375)"/><use xlink:href="#r" transform="matrix(1,0,0,1,227.31070963541669,272.16474016174044) translate(0.004999999999999005 17.4375)"/><path d="M-133.63 304.34l1.9.46 1.8.75 1.68 1.02 1.5 1.27 1.26 1.5 1.03 1.66.75 1.8.46 1.9.15 1.95v51.33l.13 1.82.43 1.76.7 1.67.93 1.54 1.17 1.38 1.37 1.17 1.55.95 1.66.7 1.75.4 1.84.15h65.54v.96h-65.58l-1.94-.16-1.9-.45-1.8-.75-1.68-1.03-1.5-1.28-1.26-1.5-1.02-1.66-.75-1.8-.46-1.9-.16-1.94V316.7l-.14-1.84-.42-1.75-.7-1.67-.94-1.54-1.17-1.38-1.38-1.18-1.55-.94-1.67-.7-1.76-.4-1.82-.16h-51.02v-.95h51.06zm-114.04.8v-.95h29.24v.94z" stroke="#3a414a" stroke-width=".05" fill="#3a414a"/><path d="M-247.65 305.14h-.52v-.95h.52z" fill="#3a414a"/><path stroke="#3a414a" stroke-width=".05" fill="#3a414a"/><path stroke="#3a414a" stroke-width=".05" fill="#3a414a"/><use xlink:href="#v" transform="matrix(1,0,0,1,-46.0175630255268,369.1103515625) translate(0.005000000000002558 17.4375)"/><use xlink:href="#t" transform="matrix(1,0,0,1,-218.42982597678767,293.77701822916674) translate(0.005000000000000782 17.4375)"/><path d="M112.63 479h-.95v-26.78h.94zm-10.53-99.32l1.9.45 1.8.75 1.68 1.03 1.5 1.28 1.26 1.5 1.03 1.66.75 1.8.45 1.9.16 1.94v38.46h-.95v-38.42l-.15-1.82-.42-1.76-.68-1.67-.95-1.54-1.17-1.38-1.38-1.17-1.54-.95-1.67-.7-1.75-.4-1.82-.15h-76.2v-.96h76.24z" stroke="#3a414a" stroke-width=".05" fill="#3a414a"/><path stroke="#3a414a" stroke-width=".05" fill="#3a414a"/><path d="M112.63 479.5h-.95v-.5h.94z" fill="#3a414a"/><path stroke="#3a414a" stroke-width=".05" fill="#3a414a"/><use xlink:href="#q" transform="matrix(1,0,0,1,91.77720764401269,430.4436848958333) translate(0.004999999999999005 17.4375)"/><path d="M-238 665.14h-9.67v-.95h9.68zm154.14-12.46l-.15 1.94-.47 1.9-.75 1.8-1.02 1.68-1.27 1.5-1.5 1.26-1.67 1.02-1.8.75-1.9.46-1.94.14h-100.94v-.95h100.9l1.8-.15 1.77-.42 1.67-.7 1.54-.94 1.38-1.18 1.17-1.38.93-1.54.7-1.67.42-1.76.14-1.82V617.3h.94zM17.8 548.63H-72.3l-1.84.14-1.75.42-1.66.68-1.55.95-1.38 1.17-1.18 1.38-.94 1.54-.7 1.67-.42 1.75-.14 1.82v35.35h-.95v-35.4l.14-1.92.46-1.9.75-1.8 1.02-1.68 1.27-1.5 1.5-1.26 1.66-1.03 1.8-.75 1.92-.45 1.93-.16H17.8zm61.2 0H58.56v-.96H79z" stroke="#3a414a" stroke-width=".05" fill="#3a414a"/><path d="M-247.65 665.14h-.52v-.95h.52z" fill="#3a414a"/><path stroke="#3a414a" stroke-width=".05" fill="#3a414a"/><path d="M79.5 548.63H79v-.96h.5z" fill="#3a414a"/><path stroke="#3a414a" stroke-width=".05" fill="#3a414a"/><use xlink:href="#q" transform="matrix(1,0,0,1,-237.98826272710699,653.7770182291667) translate(0.004999999999999005 17.4375)"/><use xlink:href="#q" transform="matrix(1,0,0,1,17.81129168825096,537.2604158550691) translate(0.004999999999999005 17.4375)"/><use xlink:href="#s" transform="matrix(1,0,0,1,-120.41241905109221,595.5187170421179) translate(0.005000000000002558 17.4375)"/><path d="M672.63 754.48h-20.3v-.96h20.3zM740.48 742l-.16 1.93-.45 1.9-.75 1.8-1.03 1.68-1.28 1.5-1.5 1.26-1.66 1.02-1.8.75-1.9.45-1.94.15h-14.65v-.95h14.6l1.83-.14 1.76-.42 1.67-.7 1.54-.94 1.38-1.17 1.17-1.38.95-1.54.7-1.67.4-1.76.15-1.82v-73.23h.96zM728 609.36l1.93.15 1.9.47 1.8.75 1.68 1.02 1.5 1.27 1.26 1.5 1.02 1.67.75 1.8.45 1.9.15 1.95v25.15h-.95v-25.12l-.14-1.82-.42-1.76-.7-1.67-.94-1.54-1.17-1.38-1.38-1.17-1.54-.93-1.67-.7-1.76-.42-1.82-.14h-18.02v-.94zm-38.54-11.54l.08 1.12h-.95l-.08-1.1v-27.5h.96z" stroke="#3a414a" stroke-width=".05" fill="#3a414a"/><path d="M652.35 754.48h-.52v-.96h.52z" fill="#3a414a"/><path stroke="#3a414a" stroke-width=".05" fill="#3a414a"/><path d="M689.48 570.35h-.96v-.52h.96z" fill="#3a414a"/><path stroke="#3a414a" stroke-width=".05" fill="#3a414a"/><use xlink:href="#u" transform="matrix(1,0,0,1,725.3046875,646.9672832430338) translate(0.005000000000000782 17.4375)"/><use xlink:href="#r" transform="matrix(1,0,0,1,673.2520413296467,598.9436328560178) translate(0.004999999999999005 17.4375)"/><use xlink:href="#q" transform="matrix(1,0,0,1,672.626953125,743.1103515625002) translate(-0.2896883750003667 17.4375)"/><path d="M-159.53 483.1l.15 1.83.42 1.76.7 1.66.94 1.54 1.17 1.38 1.38 1.17 1.54.95 1.67.7 1.76.4 1.82.16H17.58v.95h-165.6l-1.93-.15-1.9-.45-1.8-.75-1.68-1.03-1.5-1.27-1.26-1.5-1.02-1.65-.75-1.8-.45-1.92-.16-1.93v-29.13h.95zM79 494.67v.95H58.33v-.94zm-250.98-105.3l1.93.15 1.9.47 1.8.75 1.68 1.02 1.5 1.27 1.26 1.5 1.02 1.67.75 1.8.45 1.9.16 1.94v30.44h-.95v-30.4l-.15-1.8-.42-1.77-.7-1.67-.94-1.54-1.17-1.38-1.38-1.17-1.54-.93-1.67-.7-1.76-.42-1.82-.14h-93.9v-.94zm-121.98-11.55l.1 1.14h-.96l-.1-1.1v-27.5h.96z" stroke="#3a414a" stroke-width=".05" fill="#3a414a"/><path d="M-293.96 350.35h-.95v-.52h.94z" fill="#3a414a"/><path stroke="#3a414a" stroke-width=".05" fill="#3a414a"/><path d="M79.5 495.6H79v-.94h.5z" fill="#3a414a"/><path stroke="#3a414a" stroke-width=".05" fill="#3a414a"/><g><use xlink:href="#w" transform="matrix(1,0,0,1,-213.39794921875,432.24149011479585) translate(0.005000000000002558 17.4375)"/></g><g><use xlink:href="#q" transform="matrix(1,0,0,1,-306.65218526785713,378.9436038983105) translate(0.004999999999999005 17.4375)"/></g><g><use xlink:href="#q" transform="matrix(1,0,0,1,17.581006147959215,484.2411588018924) translate(0.004999999999999005 17.4375)"/></g><path d="M-460-2.67a8 8 0 0 1 8-8h195.33a8 8 0 0 1 8 8v73.34a8 8 0 0 1-8 8H-452a8 8 0 0 1-8-8z" stroke="#3a414a" fill="#fff"/><g><use xlink:href="#x" transform="matrix(1,0,0,1,-448,1.3333333333335418) translate(45.11962890625 27.75)"/><use xlink:href="#b" transform="matrix(1,0,0,1,-448,1.3333333333335418) translate(20.154296875 49.529296875)"/><use xlink:href="#y" transform="matrix(1,0,0,1,-448,1.3333333333335418) translate(48.806640625 49.529296875)"/></g><path d="M-353.86 259h-.95v-25.47h.94zm0-47.24h-.95v-31.54h.94zm0-53.32h-.95v-34.77h.94zm0-56.55h-.95V79.66h.94z" stroke="#3a414a" stroke-width=".05" fill="#3a414a"/><path d="M-353.86 259.5h-.95v-.5h.94z" fill="#3a414a"/><path stroke="#3a414a" stroke-width=".05" fill="#3a414a"/><path d="M-353.86 79.68h-.95v-.5h.94z" fill="#3a414a"/><path stroke="#3a414a" stroke-width=".05" fill="#3a414a"/><g><use xlink:href="#t" transform="matrix(1,0,0,1,-370.2371419270833,101.88671353760313) translate(0.005000000000000782 17.4375)"/></g><g><use xlink:href="#z" transform="matrix(1,0,0,1,-368.2200520833333,211.755584253464) translate(0.005000000000000782 17.4375)"/></g><g><use xlink:href="#u" transform="matrix(1,0,0,1,-369.0286458333333,158.4436847291667) translate(0.005000000000000782 17.4375)"/></g><defs><path fill="#3a414a" d="M763 24c-353 0-583-224-583-531v-983h190v968c0 214 149 370 393 370 243 0 391-156 391-370v-968h190v983c0 307-230 531-581 531" id="A"/><path fill="#3a414a" d="M598-1118v154H368v674c0 100 37 144 132 144 23 0 62-6 92-12L629-6c-37 13-88 20-134 20-193 0-307-107-307-290v-688H20v-154h168v-266h180v266h230" id="B"/><path fill="#3a414a" d="M158 0v-1118h180V0H158zm91-1301c-68 0-125-53-125-119s57-119 125-119c69 0 126 53 126 119s-57 119-126 119" id="C"/><path fill="#3a414a" d="M338-1490V0H158v-1490h180" id="D"/><path fill="#3a414a" d="M126 0v-134l627-806v-11H146v-167h839v143L376-178v11h629V0H126" id="E"/><path fill="#3a414a" d="M471 26C259 26 90-98 90-318c0-256 228-303 435-329 202-27 287-16 287-108 0-139-79-219-234-219-161 0-248 86-283 164l-173-57c86-203 278-265 451-265 150 0 419 46 419 395V0H815v-152h-12C765-73 660 26 471 26zm31-159c199 0 310-134 310-271v-155c-30 35-226 55-295 64-131 17-246 59-246 186 0 116 97 176 231 176" id="F"/><path fill="#3a414a" d="M613 24c-304 0-509-231-509-576 0-350 205-580 509-580 305 0 511 230 511 580 0 345-206 576-511 576zm0-161c226 0 329-195 329-415 0-222-103-419-329-419-223 0-326 196-326 419 0 220 103 415 326 415" id="G"/><path fill="#3a414a" d="M158 0v-1118h174v172h12c41-113 157-188 290-188 26 0 70 2 91 3v181c-11-2-60-10-108-10-161 0-279 109-279 260V0H158" id="H"/><g id="a"><use transform="matrix(0.0087890625,0,0,0.0087890625,0,0)" xlink:href="#A"/><use transform="matrix(0.0087890625,0,0,0.0087890625,13.39453125,0)" xlink:href="#B"/><use transform="matrix(0.0087890625,0,0,0.0087890625,19.283203125,0)" xlink:href="#C"/><use transform="matrix(0.0087890625,0,0,0.0087890625,23.642578125,0)" xlink:href="#D"/><use transform="matrix(0.0087890625,0,0,0.0087890625,28.001953125,0)" xlink:href="#C"/><use transform="matrix(0.0087890625,0,0,0.0087890625,32.361328125,0)" xlink:href="#E"/><use transform="matrix(0.0087890625,0,0,0.0087890625,42.3017578125,0)" xlink:href="#F"/><use transform="matrix(0.0087890625,0,0,0.0087890625,52.4091796875,0)" xlink:href="#B"/><use transform="matrix(0.0087890625,0,0,0.0087890625,58.1220703125,0)" xlink:href="#G"/><use transform="matrix(0.0087890625,0,0,0.0087890625,68.9150390625,0)" xlink:href="#H"/></g><path fill="#3a414a" d="M180 0v-1490h510c348 0 508 209 508 474 0 266-160 477-507 477H370V0H180zm190-706h312c236 0 327-133 327-310 0-176-91-307-329-307H370v617" id="I"/><path fill="#3a414a" d="M180 0v-1490h190c0 262 1 526-3 784 217-279 467-523 702-784h249L716-845 1319 0h-225L585-716 370-489V0H180" id="J"/><g id="b"><use transform="matrix(0.0087890625,0,0,0.0087890625,0,0)" xlink:href="#I"/><use transform="matrix(0.0087890625,0,0,0.0087890625,11.49609375,0)" xlink:href="#J"/></g><path fill="#3a414a" d="M577 24c-279 0-473-224-473-580 0-354 195-576 474-576 218 0 287 134 324 193h14v-551h180V0H922v-173h-20C865-111 790 24 577 24zm27-161c203 0 314-172 314-421 0-247-108-413-314-413-212 0-317 181-317 413 0 235 108 421 317 421" id="K"/><path fill="#3a414a" d="M934 0v166H0V0h934" id="L"/><path fill="#3a414a" d="M537 14c-226 0-379-139-379-422v-710h180v695c0 172 97 275 253 275 160 0 281-109 281-300v-670h181V0H879v-209C806-46 684 14 537 14" id="M"/><path fill="#3a414a" d="M538 24C308 24 148-78 108-271l171-41c32 123 123 178 257 178 156 0 256-77 256-169 0-77-54-128-164-154l-186-44c-203-48-300-148-300-305 0-192 176-326 414-326 230 0 351 112 402 269l-163 42c-31-80-94-158-238-158-133 0-233 69-233 162 0 83 57 129 188 160l169 40c203 48 298 149 298 302 0 196-179 339-441 339" id="N"/><path fill="#3a414a" d="M628 24c-324 0-524-230-524-574 0-343 198-582 503-582 237 0 487 146 487 559v75H286c9 234 145 362 343 362 132 0 231-58 273-172l174 48C1024-91 857 24 628 24zM287-650h624c-17-190-120-322-304-322-192 0-309 151-320 322" id="O"/><g id="c"><use transform="matrix(0.0087890625,0,0,0.0087890625,0,0)" xlink:href="#C"/><use transform="matrix(0.0087890625,0,0,0.0087890625,4.359375,0)" xlink:href="#K"/><use transform="matrix(0.0087890625,0,0,0.0087890625,15.380859375,0)" xlink:href="#L"/><use transform="matrix(0.0087890625,0,0,0.0087890625,23.58984375,0)" xlink:href="#M"/><use transform="matrix(0.0087890625,0,0,0.0087890625,34.2333984375,0)" xlink:href="#N"/><use transform="matrix(0.0087890625,0,0,0.0087890625,43.734375,0)" xlink:href="#O"/><use transform="matrix(0.0087890625,0,0,0.0087890625,54.228515625,0)" xlink:href="#H"/></g><path fill="#3a414a" d="M180 0v-1490h270l367 940c28 72 75 218 110 339 35-117 81-264 110-339l362-940h271V0h-187c2-448-5-837 7-1287-157 497-311 829-483 1287H842C666-458 514-784 354-1284c12 438 5 843 7 1284H180" id="P"/><g id="d"><use transform="matrix(0.0087890625,0,0,0.0087890625,0,0)" xlink:href="#P"/><use transform="matrix(0.0087890625,0,0,0.0087890625,16.259765625,0)" xlink:href="#O"/><use transform="matrix(0.0087890625,0,0,0.0087890625,26.75390625,0)" xlink:href="#D"/><use transform="matrix(0.0087890625,0,0,0.0087890625,31.11328125,0)" xlink:href="#G"/><use transform="matrix(0.0087890625,0,0,0.0087890625,41.90625,0)" xlink:href="#K"/><use transform="matrix(0.0087890625,0,0,0.0087890625,52.927734375,0)" xlink:href="#C"/><use transform="matrix(0.0087890625,0,0,0.0087890625,57.287109375,0)" xlink:href="#O"/></g><path fill="#3a414a" d="M158 0v-1118h175l1 205c55-151 181-225 313-225 147 0 245 90 285 228 53-141 190-228 352-228 194 0 352 125 352 384V0h-181v-749c0-161-105-225-225-225-151 0-243 103-243 244V0H807v-767c0-124-93-207-219-207-131 0-250 92-250 270V0H158" id="Q"/><g id="e"><use transform="matrix(0.0087890625,0,0,0.0087890625,0,0)" xlink:href="#C"/><use transform="matrix(0.0087890625,0,0,0.0087890625,4.359375,0)" xlink:href="#K"/><use transform="matrix(0.0087890625,0,0,0.0087890625,15.380859375,0)" xlink:href="#L"/><use transform="matrix(0.0087890625,0,0,0.0087890625,24.1962890625,0)" xlink:href="#Q"/><use transform="matrix(0.0087890625,0,0,0.0087890625,39.9638671875,0)" xlink:href="#O"/><use transform="matrix(0.0087890625,0,0,0.0087890625,50.4580078125,0)" xlink:href="#D"/><use transform="matrix(0.0087890625,0,0,0.0087890625,54.8173828125,0)" xlink:href="#G"/><use transform="matrix(0.0087890625,0,0,0.0087890625,65.6103515625,0)" xlink:href="#K"/><use transform="matrix(0.0087890625,0,0,0.0087890625,76.6318359375,0)" xlink:href="#C"/><use transform="matrix(0.0087890625,0,0,0.0087890625,80.9912109375,0)" xlink:href="#O"/></g><path fill="#3a414a" d="M52 0l541-1490h220L1361 0h-200l-149-416H398L254 0H52zm404-582h497c-103-290-145-390-251-756-108 377-145 460-246 756" id="R"/><path fill="#3a414a" d="M677 24c-213 0-288-135-325-197h-20V0H158v-1490h180v551h14c37-59 106-193 324-193 279 0 474 222 474 576 0 356-194 580-473 580zm-27-161c209 0 317-186 317-421 0-232-105-413-317-413-206 0-314 166-314 413 0 249 111 421 314 421" id="S"/><g id="f"><use transform="matrix(0.0087890625,0,0,0.0087890625,0,0)" xlink:href="#R"/><use transform="matrix(0.0087890625,0,0,0.0087890625,12.4189453125,0)" xlink:href="#D"/><use transform="matrix(0.0087890625,0,0,0.0087890625,16.7783203125,0)" xlink:href="#S"/><use transform="matrix(0.0087890625,0,0,0.0087890625,27.7998046875,0)" xlink:href="#M"/><use transform="matrix(0.0087890625,0,0,0.0087890625,38.443359375,0)" xlink:href="#Q"/></g><g id="g"><use transform="matrix(0.0087890625,0,0,0.0087890625,0,0)" xlink:href="#C"/><use transform="matrix(0.0087890625,0,0,0.0087890625,4.359375,0)" xlink:href="#K"/><use transform="matrix(0.0087890625,0,0,0.0087890625,15.380859375,0)" xlink:href="#L"/><use transform="matrix(0.0087890625,0,0,0.0087890625,23.58984375,0)" xlink:href="#F"/><use transform="matrix(0.0087890625,0,0,0.0087890625,33.697265625,0)" xlink:href="#D"/><use transform="matrix(0.0087890625,0,0,0.0087890625,38.056640625,0)" xlink:href="#S"/><use transform="matrix(0.0087890625,0,0,0.0087890625,49.078125,0)" xlink:href="#M"/><use transform="matrix(0.0087890625,0,0,0.0087890625,59.7216796875,0)" xlink:href="#Q"/></g><path fill="#3a414a" d="M140 405l46-156c120 36 205 19 263-150l32-93L54-1118h197c107 313 237 620 324 950 87-331 219-637 326-950h196L606 167c-68 178-176 259-334 259-64 0-113-12-132-21" id="T"/><g id="h"><use transform="matrix(0.0087890625,0,0,0.0087890625,0,0)" xlink:href="#I"/><use transform="matrix(0.0087890625,0,0,0.0087890625,11.49609375,0)" xlink:href="#D"/><use transform="matrix(0.0087890625,0,0,0.0087890625,15.85546875,0)" xlink:href="#F"/><use transform="matrix(0.0087890625,0,0,0.0087890625,25.69921875,0)" xlink:href="#T"/><use transform="matrix(0.0087890625,0,0,0.0087890625,35.9033203125,0)" xlink:href="#D"/><use transform="matrix(0.0087890625,0,0,0.0087890625,40.2626953125,0)" xlink:href="#C"/><use transform="matrix(0.0087890625,0,0,0.0087890625,44.6220703125,0)" xlink:href="#N"/><use transform="matrix(0.0087890625,0,0,0.0087890625,54.123046875,0)" xlink:href="#B"/></g><path fill="#3a414a" d="M158 418v-1536h174v179h20c37-59 106-193 324-193 279 0 474 222 474 576 0 356-194 580-473 580-213 0-288-135-325-197h-14v591H158zm492-555c209 0 317-186 317-421 0-232-105-413-317-413-206 0-314 166-314 413 0 249 111 421 314 421" id="U"/><g id="i"><use transform="matrix(0.0087890625,0,0,0.0087890625,0,0)" xlink:href="#C"/><use transform="matrix(0.0087890625,0,0,0.0087890625,4.359375,0)" xlink:href="#K"/><use transform="matrix(0.0087890625,0,0,0.0087890625,15.380859375,0)" xlink:href="#L"/><use transform="matrix(0.0087890625,0,0,0.0087890625,24.1962890625,0)" xlink:href="#U"/><use transform="matrix(0.0087890625,0,0,0.0087890625,35.2177734375,0)" xlink:href="#D"/><use transform="matrix(0.0087890625,0,0,0.0087890625,39.5771484375,0)" xlink:href="#F"/><use transform="matrix(0.0087890625,0,0,0.0087890625,49.4208984375,0)" xlink:href="#T"/><use transform="matrix(0.0087890625,0,0,0.0087890625,59.625,0)" xlink:href="#D"/><use transform="matrix(0.0087890625,0,0,0.0087890625,63.984375,0)" xlink:href="#C"/><use transform="matrix(0.0087890625,0,0,0.0087890625,68.34375,0)" xlink:href="#N"/><use transform="matrix(0.0087890625,0,0,0.0087890625,77.8447265625,0)" xlink:href="#B"/></g><path fill="#3a414a" d="M789 20c-398 0-667-293-667-764 0-473 273-766 655-766 315 0 558 198 612 487h-196c-61-191-204-311-415-311-262 0-471 207-471 590 0 380 208 588 482 588 249 0 420-165 425-427H828v-166h572v163c0 370-256 606-611 606" id="V"/><path fill="#3a414a" d="M338-670V0H158v-1118h173l1 207c72-158 192-221 342-221 226 0 378 139 378 422V0H872v-695c0-172-96-275-252-275-161 0-282 109-282 300" id="W"/><g id="j"><use transform="matrix(0.0087890625,0,0,0.0087890625,0,0)" xlink:href="#V"/><use transform="matrix(0.0087890625,0,0,0.0087890625,13.4296875,0)" xlink:href="#O"/><use transform="matrix(0.0087890625,0,0,0.0087890625,23.923828125,0)" xlink:href="#W"/></g><path fill="#3a414a" d="M611 442c-248 0-391-105-460-228l146-94c47 65 117 165 314 165 178 0 307-82 307-266v-224h-17C863-141 792-18 576-18c-268 0-472-195-472-546 0-346 197-568 476-568 216 0 288 133 326 193h17v-179h175V29c0 289-215 413-487 413zm-5-620c203 0 314-146 314-390 0-237-108-403-314-403-213 0-319 180-319 403 0 230 109 390 319 390" id="X"/><g id="k"><use transform="matrix(0.0087890625,0,0,0.0087890625,0,0)" xlink:href="#C"/><use transform="matrix(0.0087890625,0,0,0.0087890625,4.359375,0)" xlink:href="#K"/><use transform="matrix(0.0087890625,0,0,0.0087890625,15.380859375,0)" xlink:href="#L"/><use transform="matrix(0.0087890625,0,0,0.0087890625,23.58984375,0)" xlink:href="#X"/><use transform="matrix(0.0087890625,0,0,0.0087890625,34.62890625,0)" xlink:href="#O"/><use transform="matrix(0.0087890625,0,0,0.0087890625,45.123046875,0)" xlink:href="#W"/></g><path fill="#3a414a" d="M180 0v-1490h901v168H370v510h643v168H370V0H180" id="Y"/><g id="l"><use transform="matrix(0.0087890625,0,0,0.0087890625,0,0)" xlink:href="#Y"/><use transform="matrix(0.0087890625,0,0,0.0087890625,9.9140625,0)" xlink:href="#O"/><use transform="matrix(0.0087890625,0,0,0.0087890625,20.408203125,0)" xlink:href="#O"/><use transform="matrix(0.0087890625,0,0,0.0087890625,30.90234375,0)" xlink:href="#D"/><use transform="matrix(0.0087890625,0,0,0.0087890625,35.26171875,0)" xlink:href="#C"/><use transform="matrix(0.0087890625,0,0,0.0087890625,39.62109375,0)" xlink:href="#W"/><use transform="matrix(0.0087890625,0,0,0.0087890625,50.255859375,0)" xlink:href="#X"/></g><path fill="#3a414a" d="M678-1118v154H420V0H240v-964H20v-154h220v-149c0-194 155-293 318-293 85 0 141 18 168 30l-50 154c-19-6-47-17-97-17-111 0-159 58-159 166v109h258" id="Z"/><g id="m"><use transform="matrix(0.0087890625,0,0,0.0087890625,0,0)" xlink:href="#C"/><use transform="matrix(0.0087890625,0,0,0.0087890625,4.359375,0)" xlink:href="#K"/><use transform="matrix(0.0087890625,0,0,0.0087890625,15.380859375,0)" xlink:href="#L"/><use transform="matrix(0.0087890625,0,0,0.0087890625,23.58984375,0)" xlink:href="#Z"/><use transform="matrix(0.0087890625,0,0,0.0087890625,29.724609375,0)" xlink:href="#O"/><use transform="matrix(0.0087890625,0,0,0.0087890625,40.21875,0)" xlink:href="#O"/><use transform="matrix(0.0087890625,0,0,0.0087890625,50.712890625,0)" xlink:href="#D"/><use transform="matrix(0.0087890625,0,0,0.0087890625,55.072265625,0)" xlink:href="#C"/><use transform="matrix(0.0087890625,0,0,0.0087890625,59.431640625,0)" xlink:href="#W"/><use transform="matrix(0.0087890625,0,0,0.0087890625,70.06640625,0)" xlink:href="#X"/></g><g id="n"><use transform="matrix(0.0087890625,0,0,0.0087890625,0,0)" xlink:href="#R"/><use transform="matrix(0.0087890625,0,0,0.0087890625,12.4189453125,0)" xlink:href="#H"/><use transform="matrix(0.0087890625,0,0,0.0087890625,19.4765625,0)" xlink:href="#B"/><use transform="matrix(0.0087890625,0,0,0.0087890625,25.365234375,0)" xlink:href="#C"/><use transform="matrix(0.0087890625,0,0,0.0087890625,29.724609375,0)" xlink:href="#N"/><use transform="matrix(0.0087890625,0,0,0.0087890625,39.2255859375,0)" xlink:href="#B"/></g><g id="o"><use transform="matrix(0.0087890625,0,0,0.0087890625,0,0)" xlink:href="#C"/><use transform="matrix(0.0087890625,0,0,0.0087890625,4.359375,0)" xlink:href="#K"/><use transform="matrix(0.0087890625,0,0,0.0087890625,15.380859375,0)" xlink:href="#L"/><use transform="matrix(0.0087890625,0,0,0.0087890625,23.58984375,0)" xlink:href="#F"/><use transform="matrix(0.0087890625,0,0,0.0087890625,33.697265625,0)" xlink:href="#H"/><use transform="matrix(0.0087890625,0,0,0.0087890625,40.7548828125,0)" xlink:href="#B"/><use transform="matrix(0.0087890625,0,0,0.0087890625,46.6435546875,0)" xlink:href="#C"/><use transform="matrix(0.0087890625,0,0,0.0087890625,51.0029296875,0)" xlink:href="#N"/><use transform="matrix(0.0087890625,0,0,0.0087890625,60.50390625,0)" xlink:href="#B"/></g><path fill="#3a414a" d="M645 0H180v-1490h484c435 0 692 280 692 742 0 466-257 748-711 748zM370-168h263c363 0 539-218 539-580 0-358-176-574-521-574H370v1154" id="aa"/><g id="p"><use transform="matrix(0.0087890625,0,0,0.0087890625,0,0)" xlink:href="#aa"/><use transform="matrix(0.0087890625,0,0,0.0087890625,12.990234375,0)" xlink:href="#O"/><use transform="matrix(0.0087890625,0,0,0.0087890625,23.484375,0)" xlink:href="#B"/><use transform="matrix(0.0087890625,0,0,0.0087890625,29.373046875,0)" xlink:href="#C"/><use transform="matrix(0.0087890625,0,0,0.0087890625,33.732421875,0)" xlink:href="#W"/><use transform="matrix(0.0087890625,0,0,0.0087890625,44.3671875,0)" xlink:href="#O"/></g><path fill="#3a414a" d="M218-607c0-325 108-727 258-974h175c-155 315-250 682-250 974 0 265 78 531 250 886H476C306-10 218-315 218-607" id="ab"/><path fill="#3a414a" d="M646 20c-332 0-524-278-524-764 0-483 194-766 524-766s524 283 524 766c0 485-191 764-524 764zm0-166c218 0 341-220 341-598 0-380-123-601-341-601s-341 222-341 601c0 378 123 598 341 598" id="ac"/><path fill="#3a414a" d="M96 279C273-86 346-350 346-607c0-292-95-659-250-974h175c150 246 258 650 258 974 0 297-91 602-258 886H96" id="ad"/><g id="q"><use transform="matrix(0.0087890625,0,0,0.0087890625,0,0)" xlink:href="#P"/><use transform="matrix(0.0087890625,0,0,0.0087890625,16.259765625,0)" xlink:href="#ab"/><use transform="matrix(0.0087890625,0,0,0.0087890625,22.8251953125,0)" xlink:href="#ac"/><use transform="matrix(0.0087890625,0,0,0.0087890625,34.1806640625,0)" xlink:href="#ad"/></g><path fill="#3a414a" d="M653-1490V0H466v-1314h-10L96-1047v-204l324-239h233" id="ae"/><g id="r"><use transform="matrix(0.0087890625,0,0,0.0087890625,0,0)" xlink:href="#P"/><use transform="matrix(0.0087890625,0,0,0.0087890625,16.259765625,0)" xlink:href="#ab"/><use transform="matrix(0.0087890625,0,0,0.0087890625,22.8251953125,0)" xlink:href="#ae"/><use transform="matrix(0.0087890625,0,0,0.0087890625,30.146484375,0)" xlink:href="#ad"/></g><g id="s"><use transform="matrix(0.0087890625,0,0,0.0087890625,0,0)" xlink:href="#R"/><use transform="matrix(0.0087890625,0,0,0.0087890625,12.4189453125,0)" xlink:href="#U"/><use transform="matrix(0.0087890625,0,0,0.0087890625,23.6162109375,0)" xlink:href="#F"/><use transform="matrix(0.0087890625,0,0,0.0087890625,33.7236328125,0)" xlink:href="#H"/><use transform="matrix(0.0087890625,0,0,0.0087890625,40.78125,0)" xlink:href="#B"/><use transform="matrix(0.0087890625,0,0,0.0087890625,46.669921875,0)" xlink:href="#C"/><use transform="matrix(0.0087890625,0,0,0.0087890625,51.029296875,0)" xlink:href="#W"/><use transform="matrix(0.0087890625,0,0,0.0087890625,61.6640625,0)" xlink:href="#O"/></g><g id="t"><use transform="matrix(0.0087890625,0,0,0.0087890625,0,0)" xlink:href="#ae"/><use transform="matrix(0.0087890625,0,0,0.0087890625,7.3212890625,0)" xlink:href="#ab"/><use transform="matrix(0.0087890625,0,0,0.0087890625,13.88671875,0)" xlink:href="#ac"/><use transform="matrix(0.0087890625,0,0,0.0087890625,25.2421875,0)" xlink:href="#ad"/></g><g id="u"><use transform="matrix(0.0087890625,0,0,0.0087890625,0,0)" xlink:href="#R"/><use transform="matrix(0.0087890625,0,0,0.0087890625,12.4189453125,0)" xlink:href="#H"/><use transform="matrix(0.0087890625,0,0,0.0087890625,18.896484375,0)" xlink:href="#O"/></g><path fill="#3a414a" d="M657 26c-323 0-524-166-541-416h195c15 169 171 246 346 246 202 0 356-106 356-265 5-203-294-238-475-293-239-73-380-191-380-389 0-252 224-419 512-419 294 0 499 171 508 396H992c-17-145-151-228-328-228-193 0-321 102-321 242 0 156 175 211 284 241l149 41c160 44 422 134 422 412 0 244-197 432-541 432" id="af"/><g id="v"><use transform="matrix(0.0087890625,0,0,0.0087890625,0,0)" xlink:href="#af"/><use transform="matrix(0.0087890625,0,0,0.0087890625,11.548828125,0)" xlink:href="#B"/><use transform="matrix(0.0087890625,0,0,0.0087890625,17.4375,0)" xlink:href="#H"/><use transform="matrix(0.0087890625,0,0,0.0087890625,23.9150390625,0)" xlink:href="#O"/><use transform="matrix(0.0087890625,0,0,0.0087890625,34.5849609375,0)" xlink:href="#F"/><use transform="matrix(0.0087890625,0,0,0.0087890625,44.6923828125,0)" xlink:href="#Q"/><use transform="matrix(0.0087890625,0,0,0.0087890625,60.4599609375,0)" xlink:href="#N"/></g><path fill="#3a414a" d="M409 0L70-1118h191c89 329 165 560 243 925 75-353 154-601 240-925h192c85 325 161 564 235 922 77-354 157-598 244-922h191L1267 0h-179c-86-307-176-590-250-913C763-588 675-308 588 0H409" id="ag"/><g id="w"><use transform="matrix(0.0087890625,0,0,0.0087890625,0,0)" xlink:href="#aa"/><use transform="matrix(0.0087890625,0,0,0.0087890625,12.990234375,0)" xlink:href="#G"/><use transform="matrix(0.0087890625,0,0,0.0087890625,23.4580078125,0)" xlink:href="#ag"/><use transform="matrix(0.0087890625,0,0,0.0087890625,38.1884765625,0)" xlink:href="#W"/><use transform="matrix(0.0087890625,0,0,0.0087890625,48.8232421875,0)" xlink:href="#D"/><use transform="matrix(0.0087890625,0,0,0.0087890625,53.1826171875,0)" xlink:href="#G"/><use transform="matrix(0.0087890625,0,0,0.0087890625,64.1513671875,0)" xlink:href="#F"/><use transform="matrix(0.0087890625,0,0,0.0087890625,74.2587890625,0)" xlink:href="#K"/><use transform="matrix(0.0087890625,0,0,0.0087890625,85.2802734375,0)" xlink:href="#O"/><use transform="matrix(0.0087890625,0,0,0.0087890625,95.7744140625,0)" xlink:href="#K"/></g><g id="x"><use transform="matrix(0.0087890625,0,0,0.0087890625,0,0)" xlink:href="#R"/><use transform="matrix(0.0087890625,0,0,0.0087890625,12.4189453125,0)" xlink:href="#S"/><use transform="matrix(0.0087890625,0,0,0.0087890625,23.4404296875,0)" xlink:href="#G"/><use transform="matrix(0.0087890625,0,0,0.0087890625,34.2333984375,0)" xlink:href="#W"/><use transform="matrix(0.0087890625,0,0,0.0087890625,44.8681640625,0)" xlink:href="#F"/><use transform="matrix(0.0087890625,0,0,0.0087890625,54.9755859375,0)" xlink:href="#Q"/><use transform="matrix(0.0087890625,0,0,0.0087890625,70.7431640625,0)" xlink:href="#O"/><use transform="matrix(0.0087890625,0,0,0.0087890625,81.2373046875,0)" xlink:href="#W"/><use transform="matrix(0.0087890625,0,0,0.0087890625,91.8720703125,0)" xlink:href="#B"/></g><g id="y"><use transform="matrix(0.0087890625,0,0,0.0087890625,0,0)" xlink:href="#C"/><use transform="matrix(0.0087890625,0,0,0.0087890625,4.359375,0)" xlink:href="#K"/><use transform="matrix(0.0087890625,0,0,0.0087890625,15.380859375,0)" xlink:href="#L"/><use transform="matrix(0.0087890625,0,0,0.0087890625,23.58984375,0)" xlink:href="#F"/><use transform="matrix(0.0087890625,0,0,0.0087890625,33.697265625,0)" xlink:href="#S"/><use transform="matrix(0.0087890625,0,0,0.0087890625,44.71875,0)" xlink:href="#G"/><use transform="matrix(0.0087890625,0,0,0.0087890625,55.51171875,0)" xlink:href="#W"/><use transform="matrix(0.0087890625,0,0,0.0087890625,66.146484375,0)" xlink:href="#F"/><use transform="matrix(0.0087890625,0,0,0.0087890625,76.25390625,0)" xlink:href="#Q"/><use transform="matrix(0.0087890625,0,0,0.0087890625,92.021484375,0)" xlink:href="#O"/><use transform="matrix(0.0087890625,0,0,0.0087890625,102.515625,0)" xlink:href="#W"/><use transform="matrix(0.0087890625,0,0,0.0087890625,113.150390625,0)" xlink:href="#B"/></g><g id="z"><use transform="matrix(0.0087890625,0,0,0.0087890625,0,0)" xlink:href="#ae"/><use transform="matrix(0.0087890625,0,0,0.0087890625,7.3212890625,0)" xlink:href="#ab"/><use transform="matrix(0.0087890625,0,0,0.0087890625,13.88671875,0)" xlink:href="#ae"/><use transform="matrix(0.0087890625,0,0,0.0087890625,21.2080078125,0)" xlink:href="#ad"/></g></defs></g></svg>